<svg xmlns="http://www.w3.org/2000/svg" xmlns:xlink="http://www.w3.org/1999/xlink" width="768.289" height="454.44" viewBox="0 0 576.217 340.83"><path d="M-44.024 353.28h720v-360h-720z" fill="#fff"/><path d="M35.646 292.74h532.33V4.08H35.646z" fill="#fff"/><clipPath id="a"><path transform="matrix(1 0 0 -1 -44.024 353.28)" d="M79.67 60.54H612V349.2H79.67z"/></clipPath><g clip-path="url(#a)"><path d="M35.646 279.62h451.855v-23.857H35.646z" fill="#0072b2"/></g><clipPath id="b"><path transform="matrix(1 0 0 -1 -44.024 353.28)" d="M79.67 60.54H612V349.2H79.67z"/></clipPath><g clip-path="url(#b)"><path d="M35.646 249.799H283.97v-23.856H35.646z" fill="#e69f00"/></g><clipPath id="c"><path transform="matrix(1 0 0 -1 -44.024 353.28)" d="M79.67 60.54H612V349.2H79.67z"/></clipPath><g clip-path="url(#c)"><path d="M35.646 219.979h348.495v-23.856H35.646z" fill="#009e73"/></g><clipPath id="d"><path transform="matrix(1 0 0 -1 -44.024 353.28)" d="M79.67 60.54H612V349.2H79.67z"/></clipPath><g clip-path="url(#d)"><path d="M35.646 190.159h355.79v-23.857H35.646z" fill="#d55e00"/></g><clipPath id="e"><path transform="matrix(1 0 0 -1 -44.024 353.28)" d="M79.67 60.54H612V349.2H79.67z"/></clipPath><g clip-path="url(#e)"><path d="M35.646 160.338h307.745v-23.856H35.646z" fill="#cc79a7"/></g><clipPath id="f"><path transform="matrix(1 0 0 -1 -44.024 353.28)" d="M79.67 60.54H612V349.2H79.67z"/></clipPath><g clip-path="url(#f)"><path d="M35.646 130.518h261.199v-23.856H35.646z" fill="#f0e442"/></g><clipPath id="g"><path transform="matrix(1 0 0 -1 -44.024 353.28)" d="M79.67 60.54H612V349.2H79.67z"/></clipPath><g clip-path="url(#g)"><path d="M35.646 100.698h285.952V76.842H35.646z" fill="#8b4513"/></g><clipPath id="h"><path transform="matrix(1 0 0 -1 -44.024 353.28)" d="M79.67 60.54H612V349.2H79.67z"/></clipPath><g clip-path="url(#h)"><path d="M35.646 70.878h258.967V47.02H35.646z" fill="#a9a9a9"/></g><clipPath id="i"><path transform="matrix(1 0 0 -1 -44.024 353.28)" d="M79.67 60.54H612V349.2H79.67z"/></clipPath><g clip-path="url(#i)"><clipPath id="j"><path transform="matrix(1 0 0 -1 -44.024 353.28)" d="M79.67 312.223h314.792v23.856H79.67z"/></clipPath><g clip-path="url(#j)"><symbol id="k"><path transform="matrix(1 0 0 -1 -44.024 -6.72)" d="M0 0h72v72H0zM-36 36l72 72m-66-78 72 72m-66-78 72 72m-66-78 72 72m-66-78 72 72M-6 6l72 72M0 0l72 72M6-6l72 72M12-12l72 72M18-18l72 72M24-24l72 72M30-30l72 72M36-36l72 72" fill="#009e73"/><path transform="matrix(1 0 0 -1 -44.024 -6.72)" stroke-miterlimit="10" fill="none" stroke="#000" stroke-opacity="0" d="m-36 36 72 72m-66-78 72 72m-66-78 72 72m-66-78 72 72m-66-78 72 72M-6 6l72 72M0 0l72 72M6-6l72 72M12-12l72 72M18-18l72 72M24-24l72 72M30-30l72 72M36-36l72 72"/></symbol><pattern id="l" patternUnits="userSpaceOnUse" patternContentUnits="userSpaceOnUse" x="0" y="0" width="72" height="72"><use xlink:href="#k" transform="matrix(1 0 0 -1 44.024 -6.72)"/></pattern><path transform="matrix(1 0 0 -1 -44.024 -6.72)" fill="url(#l)" d="M79.67-47.777h314.791v23.856H79.67z"/></g></g><path stroke-width=".8" stroke-linejoin="round" fill="none" stroke="#000" d="M35.646 292.74v12M156.63 292.74v12M277.615 292.74v12M398.599 292.74v12M519.583 292.74v12"/><path stroke-width=".6" stroke-linejoin="round" fill="none" stroke="#000" d="M59.843 292.74v7M84.04 292.74v7M108.237 292.74v7M132.434 292.74v7M180.827 292.74v7M205.024 292.74v7M229.221 292.74v7M253.418 292.74v7M301.811 292.74v7M326.008 292.74v7M350.205 292.74v7M374.402 292.74v7M422.796 292.74v7M446.992 292.74v7M471.19 292.74v7M495.386 292.74v7M543.78 292.74v7M567.976 292.74v7"/><symbol id="m"><path transform="translate(-.098) scale(.001)" d="M98 729h147l186-496 187 496h147V0h-96v640L481 140h-99L194 640V0H98v729z"/></symbol><symbol id="n"><path transform="matrix(.001 0 0 .001 -.06 .013)" d="M343 275c-73 0-123-9-151-25-28-17-42-45-42-85 0-32 10-58 31-76 21-19 50-28 86-28 50 0 90 17 120 53 30 35 45 82 45 141v20h-89zm179 37V0h-90v83c-21-34-47-58-77-73s-68-23-112-23c-56 0-101 15-134 46s-49 73-49 126c0 61 20 107 62 139 41 31 102 47 184 47h126v9c0 41-14 73-41 96-27 22-65 34-114 34-32 0-62-4-92-12s-58-19-85-33v83c32 12 64 22 95 28s61 10 91 10c79 0 138-21 177-62s59-103 59-186z"/></symbol><symbol id="o"><path transform="translate(-.091) scale(.001)" d="M411 463c-10 6-21 10-33 13-12 2-25 4-39 4-51 0-90-17-117-50-28-33-41-80-41-142V0H91v547h90v-85c18 33 43 58 73 74s67 24 111 24c6 0 13-1 21-1 7-1 15-2 25-4v-92z"/></symbol><symbol id="p"><path transform="matrix(.001 0 0 .001 -.055 .013)" d="M488 526v-84c-26 14-51 24-77 31s-51 11-77 11c-58 0-104-19-136-56s-48-89-48-155c0-67 16-119 48-156s78-55 136-55c26 0 51 3 77 10s51 18 77 32V21C462 9 436 0 410-5c-27-5-56-8-86-8-82 0-148 25-196 77-49 51-73 121-73 209 0 89 24 159 73 210s116 77 202 77c28 0 55-3 81-9s52-14 77-25z"/></symbol><symbol id="q"><path transform="matrix(.001 0 0 .001 -.055 .013)" d="M306 484c-48 0-86-19-114-57s-42-89-42-154c0-66 13-117 41-155s66-56 115-56c48 0 86 18 114 56s42 89 42 155c0 64-14 116-42 154s-66 57-114 57zm0 76c78 0 139-26 184-76 44-51 67-121 67-211s-23-160-67-210c-45-51-106-76-184-76-79 0-141 25-185 76-44 50-66 120-66 210s22 160 66 211c44 50 106 76 185 76z"/></symbol><symbol id="r"><path transform="translate(-.091) scale(.001)" d="M549 330V0h-90v327c0 52-11 90-31 116s-50 39-90 39c-49 0-87-16-115-47s-42-73-42-126V0H91v547h90v-85c21 32 46 57 76 73 29 16 63 25 101 25 62 0 110-20 142-59s49-96 49-171z"/></symbol><symbol id="s"><path transform="translate(-.094) scale(.001)" d="M94 547h90V0H94v547zm0 213h90V646H94v114z"/></symbol><symbol id="t"><path transform="matrix(.001 0 0 .001 -.049 -.234)" d="M49 314h263v-80H49v80z"/></symbol><symbol id="u"><path transform="translate(-.073) scale(.001)" d="M192 83h344V0H73v83c37 38 88 90 153 156 64 65 105 107 122 126 32 35 54 65 66 90 12 24 19 49 19 73 0 38-14 70-41 94s-62 37-106 37c-31 0-64-6-98-16-34-11-71-27-110-49v100c40 16 77 28 111 36s66 12 95 12c75 0 135-19 180-57s68-88 68-151c0-30-6-59-17-85-11-27-31-59-61-95-8-10-34-37-78-82S271 164 192 83z"/></symbol><symbol id="v"><path transform="matrix(.001 0 0 .001 -.077 .115)" d="M117 124h103V40l-80-155H77l40 155v84z"/></symbol><symbol id="x"><path transform="translate(.002) scale(.001)" d="M-2 729h616v-83H355V0h-99v646H-2v83z"/></symbol><symbol id="y"><path transform="translate(-.027) scale(.001)" d="M183 702V547h185v-70H183V180c0-45 6-74 18-86 12-13 37-19 75-19h92V0h-92c-70 0-118 13-144 39s-39 73-39 141v297H27v70h66v155h90z"/></symbol><symbol id="z"><path transform="translate(-.094) scale(.001)" d="M94 760h90V0H94v760z"/></symbol><symbol id="A"><path transform="matrix(.001 0 0 .001 -.055 .013)" d="M562 296v-44H149c4-62 22-110 56-142 33-32 79-48 139-48 34 0 68 4 100 12s65 21 97 39V28c-32-14-65-25-99-31s-69-10-103-10c-88 0-157 25-208 75S55 181 55 268c0 89 24 160 72 213 48 52 114 79 196 79 74 0 132-24 175-71 42-48 64-112 64-193zm-90 26c-1 49-15 88-41 118-27 29-63 44-107 44-50 0-90-15-120-43s-48-68-52-119h320z"/></symbol><symbol id="B"><path transform="translate(-.091) scale(.001)" d="M520 442c22 40 49 69 80 89 31 19 68 29 111 29 56 0 100-20 131-60s47-97 47-170V0h-90v327c0 52-10 91-28 117-19 25-47 38-85 38-47 0-84-16-111-47s-40-73-40-126V0h-90v327c0 52-10 91-28 117-19 25-48 38-86 38-46 0-83-16-110-47s-40-73-40-126V0H91v547h90v-85c20 33 45 58 74 74 28 16 62 24 102 24s73-10 101-30 48-50 62-88z"/></symbol><symbol id="C"><path transform="matrix(.001 0 0 .001 -.054 .013)" d="M443 531v-85c-26 12-52 22-79 29-28 6-56 10-85 10-45 0-79-7-101-21s-33-34-33-61c0-21 8-37 24-49s48-24 96-34l31-7c64-14 109-34 136-58 26-25 40-60 40-104 0-51-20-91-60-120-40-30-96-44-166-44-30 0-60 3-92 8S89 8 54 20v93c33-18 66-31 98-39 32-9 64-13 96-13 42 0 75 7 98 21 22 14 34 35 34 62 0 24-9 43-25 56s-52 26-108 38l-31 7c-56 12-97 30-121 54-25 24-37 57-37 100 0 51 18 91 54 119s88 42 156 42c33 0 64-3 94-8 29-5 56-12 81-21z"/></symbol><symbol id="D"><path transform="matrix(.001 0 0 .001 -.086 .131)" d="M86 760h207v-70H176V-61h117v-70H86v891z"/></symbol><symbol id="E"><path transform="translate(-.091) scale(.001)" d="M91 760h90V311l268 236h115L274 291 576 0H459L181 267V0H91v760z"/></symbol><symbol id="F"><path transform="matrix(.001 0 0 .001 -.055 .207)" d="M454 280c0 64-14 115-40 151-27 36-65 54-113 54s-86-18-113-54-40-87-40-151c0-65 13-115 40-151s65-54 113-54 86 18 113 54c26 36 40 86 40 151zm90-212c0-92-21-161-62-207-42-45-105-68-190-68-32 0-61 3-89 7-28 5-56 12-82 22v87c26-14 52-24 78-31s52-11 79-11c58 0 102 16 132 46 29 31 44 77 44 139v44c-19-32-43-56-72-72S319 0 279 0c-68 0-122 25-163 76S55 195 55 280c0 84 20 152 61 203s95 77 163 77c40 0 74-8 103-24s53-40 72-72v83h90V68z"/></symbol><symbol id="G"><path transform="matrix(.001 0 0 .001 -.056 .013)" d="M644 673V569c-34 30-69 53-107 69-38 15-77 23-119 23-84 0-148-26-192-77s-66-124-66-220 22-170 66-221 108-76 192-76c42 0 81 7 119 23 38 15 73 38 107 69V56c-35-24-72-41-110-52s-79-17-122-17C302-13 215 20 151 87S56 246 56 364c0 117 31 209 95 277 64 67 151 101 261 101 44 0 85-6 123-17 38-12 75-29 109-52z"/></symbol><symbol id="H"><path transform="matrix(.001 0 0 .001 -.056 .013)" d="M394 662c-72 0-129-27-171-80-42-54-63-126-63-218s21-165 63-218c42-54 99-80 171-80 71 0 128 26 170 80 42 53 63 126 63 218s-21 164-63 218c-42 53-99 80-170 80zm0 80c102 0 183-35 245-103 61-68 92-160 92-275 0-116-31-207-92-275C577 21 496-13 394-13 291-13 209 21 148 89c-62 68-92 159-92 275 0 115 30 207 92 275 61 68 143 103 246 103z"/></symbol><symbol id="I"><path transform="matrix(.001 0 0 .001 -.097 .131)" d="M304 760v-891H97v70h117v751H97v70h207z"/></symbol><use xlink:href="#m" transform="matrix(30 0 0 -30 31.001 335.037)"/><use xlink:href="#n" transform="matrix(30 0 0 -30 55.751 335.427)"/><use xlink:href="#o" transform="matrix(30 0 0 -30 75.071 335.037)"/><use xlink:href="#p" transform="matrix(30 0 0 -30 85.665 335.427)"/><use xlink:href="#q" transform="matrix(30 0 0 -30 102.165 335.427)"/><use xlink:href="#r" transform="matrix(30 0 0 -30 121.605 335.037)"/><use xlink:href="#s" transform="matrix(30 0 0 -30 140.715 335.037)"/><use xlink:href="#t" transform="matrix(30 0 0 -30 147.705 328.017)"/><use xlink:href="#u" transform="matrix(30 0 0 -30 159.255 335.037)"/><use xlink:href="#u" transform="matrix(30 0 0 -30 178.335 335.037)"/><use xlink:href="#v" transform="matrix(30 0 0 -30 197.535 338.487)"/><use xlink:href="#w" transform="matrix(30 0 0 -30 204.765 335.037)"/><use xlink:href="#x" transform="matrix(30 0 0 -30 214.245 335.037)"/><use xlink:href="#q" transform="matrix(30 0 0 -30 229.191 335.427)"/><use xlink:href="#y" transform="matrix(30 0 0 -30 246.711 335.037)"/><use xlink:href="#n" transform="matrix(30 0 0 -30 259.461 335.427)"/><use xlink:href="#z" transform="matrix(30 0 0 -30 278.871 335.037)"/><use xlink:href="#w" transform="matrix(30 0 0 -30 284.391 335.037)"/><use xlink:href="#A" transform="matrix(30 0 0 -30 295.581 335.427)"/><use xlink:href="#B" transform="matrix(30 0 0 -30 315.111 335.037)"/><use xlink:href="#s" transform="matrix(30 0 0 -30 344.421 335.037)"/><use xlink:href="#C" transform="matrix(30 0 0 -30 351.561 335.427)"/><use xlink:href="#C" transform="matrix(30 0 0 -30 367.191 335.427)"/><use xlink:href="#s" transform="matrix(30 0 0 -30 384.021 335.037)"/><use xlink:href="#q" transform="matrix(30 0 0 -30 391.191 335.427)"/><use xlink:href="#r" transform="matrix(30 0 0 -30 410.631 335.037)"/><use xlink:href="#C" transform="matrix(30 0 0 -30 428.541 335.427)"/><use xlink:href="#w" transform="matrix(30 0 0 -30 442.551 335.037)"/><use xlink:href="#D" transform="matrix(30 0 0 -30 454.671 338.967)"/><use xlink:href="#E" transform="matrix(30 0 0 -30 466.521 335.037)"/><use xlink:href="#F" transform="matrix(30 0 0 -30 482.811 341.247)"/><use xlink:href="#G" transform="matrix(30 0 0 -30 501.891 335.427)"/><use xlink:href="#H" transform="matrix(30 0 0 -30 522.831 335.427)"/><use xlink:href="#u" transform="matrix(30 0 0 -30 546.951 335.037)"/><use xlink:href="#I" transform="matrix(30 0 0 -30 566.751 338.967)"/><path stroke-width=".8" stroke-linejoin="round" fill="none" stroke="#000" d="M35.646 267.691h-3.5"/><symbol id="J"><path transform="matrix(.001 0 0 .001 -.066 .013)" d="M318 664c-51 0-89-25-115-75s-38-125-38-225 12-175 38-225 64-75 115-75 89 25 115 75c25 50 38 125 38 225s-13 175-38 225c-26 50-64 75-115 75zm0 78c81 0 143-33 187-97 43-65 65-159 65-281 0-123-22-217-65-281-44-64-106-96-188-96S173 19 130 83 66 241 66 364c0 122 21 216 64 281 43 64 106 97 188 97z"/></symbol><use xlink:href="#J" transform="matrix(32 0 0 -32 10.399 280.263)"/><path stroke-width=".8" stroke-linejoin="round" fill="none" stroke="#000" d="M35.646 237.87h-3.5"/><symbol id="K"><path transform="translate(-.11) scale(.001)" d="M124 83h161v556l-175-35v90l174 35h99V83h161V0H124v83z"/></symbol><use xlink:href="#K" transform="matrix(32 0 0 -32 11.807 250.027)"/><path stroke-width=".8" stroke-linejoin="round" fill="none" stroke="#000" d="M35.646 208.05h-3.5"/><use xlink:href="#u" transform="matrix(32 0 0 -32 10.623 220.207)"/><path stroke-width=".8" stroke-linejoin="round" fill="none" stroke="#000" d="M35.646 178.23h-3.5"/><symbol id="L"><path transform="matrix(.001 0 0 .001 -.076 .013)" d="M406 393c47-10 84-31 110-63s40-72 40-118c0-72-25-128-74-167-50-39-120-58-211-58-31 0-63 3-95 9-32 5-66 14-100 26v95c27-16 57-28 90-36 32-8 66-12 102-12 62 0 109 12 141 36s49 60 49 107c0 42-15 76-45 100s-72 37-126 37h-85v81h89c48 0 85 9 111 29 26 19 39 47 39 84s-14 66-40 86c-27 20-65 30-114 30-27 0-56-3-87-9s-65-15-102-27v88c37 10 72 18 105 23 32 5 63 8 93 8 74 0 133-17 177-51s66-80 66-138c0-40-12-74-35-102s-56-48-98-58z"/></symbol><use xlink:href="#L" transform="matrix(32 0 0 -32 10.719 190.803)"/><path stroke-width=".8" stroke-linejoin="round" fill="none" stroke="#000" d="M35.646 148.41h-3.5"/><symbol id="M"><path transform="translate(-.049) scale(.001)" d="M378 643 129 254h249v389zm-26 86h124V254h104v-82H476V0h-98v172H49v95l303 462z"/></symbol><use xlink:href="#M" transform="matrix(32 0 0 -32 9.855 160.566)"/><path stroke-width=".8" stroke-linejoin="round" fill="none" stroke="#000" d="M35.646 118.59h-3.5"/><symbol id="N"><path transform="matrix(.001 0 0 .001 -.077 .013)" d="M108 729h387v-83H198V467c14 5 29 9 43 11s29 4 43 4c81 0 145-23 193-67 48-45 72-105 72-181 0-79-25-140-74-183S357-13 269-13c-31 0-62 3-94 7-32 5-64 12-98 23v99c29-16 59-28 91-36 31-8 64-11 99-11 56 0 101 14 134 44 32 30 49 70 49 121 0 50-17 90-49 120-33 30-78 45-134 45-26 0-53-3-79-9s-53-15-80-27v366z"/></symbol><use xlink:href="#N" transform="matrix(32 0 0 -32 10.751 131.162)"/><path stroke-width=".8" stroke-linejoin="round" fill="none" stroke="#000" d="M35.646 88.77h-3.5"/><symbol id="O"><path transform="matrix(.001 0 0 .001 -.07 .013)" d="M330 404c-44 0-79-16-105-46s-39-72-39-124c0-53 13-95 39-125s61-45 105-45 79 15 105 45 39 72 39 125c0 52-13 94-39 124s-61 46-105 46zm196 309v-90c-25 12-50 21-75 27-26 6-51 9-75 9-66 0-116-22-150-66s-54-111-58-199c19 28 43 50 72 65s61 23 96 23c73 0 131-23 173-67s64-105 64-181c0-75-23-135-67-180S403-13 330-13c-84 0-149 32-193 96-45 64-67 158-67 281 0 115 27 207 82 275 54 68 128 103 220 103 24 0 49-3 75-7 25-5 51-12 79-22z"/></symbol><use xlink:href="#O" transform="matrix(32 0 0 -32 10.527 101.342)"/><path stroke-width=".8" stroke-linejoin="round" fill="none" stroke="#000" d="M35.646 58.95h-3.5"/><symbol id="P"><path transform="translate(-.082) scale(.001)" d="M82 729h469v-42L286 0H183l249 646H82v83z"/></symbol><use xlink:href="#P" transform="matrix(32 0 0 -32 10.911 71.106)"/><path stroke-width=".8" stroke-linejoin="round" fill="none" stroke="#000" d="M35.646 29.13h-3.5"/><use xlink:href="#m" transform="matrix(32 0 0 -32 4.173 41.285)"/><path stroke-width=".8" stroke-linecap="square" stroke-miterlimit="10" fill="none" stroke="#000" d="M35.646 292.74V4.08M567.976 292.74V4.08M35.646 292.74h532.33M35.646 4.08h532.33"/><symbol id="Q"><path transform="matrix(.001 0 0 .001 -.063 .013)" d="M110 15v90c24-12 49-21 75-27 25-6 50-9 75-9 64 0 114 21 148 65s54 110 60 200c-20-28-44-50-72-65-29-15-61-22-96-22-74 0-132 22-174 66S63 417 63 494c0 74 22 134 66 180 44 45 103 68 177 68 84 0 149-33 193-97 44-65 67-159 67-281 0-116-28-207-82-275C429 21 356-13 264-13c-25 0-50 3-75 7-26 4-52 11-79 21zm196 309c44 0 79 15 105 45s39 72 39 125c0 52-13 94-39 124s-61 46-105 46-79-16-105-46-39-72-39-124c0-53 13-95 39-125s61-45 105-45z"/></symbol><use xlink:href="#K" transform="matrix(26 0 0 -26 490.36 274.863)"/><use xlink:href="#M" transform="matrix(26 0 0 -26 505.31 274.863)"/><use xlink:href="#Q" transform="matrix(26 0 0 -26 522.21 275.201)"/><use xlink:href="#M" transform="matrix(26 0 0 -26 538.383 274.863)"/><symbol id="R"><path transform="matrix(.001 0 0 .001 -.068 .013)" d="M318 346c-47 0-84-13-111-38s-40-59-40-103 13-79 40-104 64-37 111-37c46 0 83 12 110 38 27 25 41 59 41 103s-14 78-40 103c-27 25-64 38-111 38zm-99 42c-42 10-75 30-99 59s-35 64-35 106c0 58 20 104 62 138 41 34 98 51 171 51 72 0 129-17 171-51 41-34 62-80 62-138 0-42-12-77-36-106s-56-49-98-59c47-11 84-33 111-65 26-32 40-72 40-118 0-71-22-125-65-162-44-38-106-56-186-56S175 5 132 43c-43 37-64 91-64 162 0 46 13 86 40 118 26 32 63 54 111 65zm-36 156c0-38 11-68 35-89s57-31 100-31c42 0 75 10 99 31s36 51 36 89-12 67-36 88-57 32-99 32c-43 0-76-11-100-32s-35-50-35-88z"/></symbol><use xlink:href="#R" transform="matrix(26 0 0 -26 285.737 245.38)"/><use xlink:href="#u" transform="matrix(26 0 0 -26 302.403 245.043)"/><use xlink:href="#K" transform="matrix(26 0 0 -26 319.901 245.043)"/><use xlink:href="#K" transform="matrix(26 0 0 -26 387.001 215.223)"/><use xlink:href="#K" transform="matrix(26 0 0 -26 403.537 215.223)"/><use xlink:href="#N" transform="matrix(26 0 0 -26 419.215 215.56)"/><use xlink:href="#u" transform="matrix(26 0 0 -26 435.647 215.223)"/><use xlink:href="#K" transform="matrix(26 0 0 -26 394.296 185.402)"/><use xlink:href="#K" transform="matrix(26 0 0 -26 410.832 185.402)"/><use xlink:href="#P" transform="matrix(26 0 0 -26 426.64 185.402)"/><use xlink:href="#O" transform="matrix(26 0 0 -26 442.864 185.74)"/><use xlink:href="#K" transform="matrix(26 0 0 -26 346.25 155.582)"/><use xlink:href="#J" transform="matrix(26 0 0 -26 361.643 155.92)"/><use xlink:href="#K" transform="matrix(26 0 0 -26 379.323 155.582)"/><use xlink:href="#P" transform="matrix(26 0 0 -26 395.13 155.582)"/><use xlink:href="#R" transform="matrix(26 0 0 -26 298.613 126.1)"/><use xlink:href="#O" transform="matrix(26 0 0 -26 315.201 126.1)"/><use xlink:href="#M" transform="matrix(26 0 0 -26 331.191 125.762)"/><use xlink:href="#Q" transform="matrix(26 0 0 -26 323.236 96.28)"/><use xlink:href="#M" transform="matrix(26 0 0 -26 339.408 95.942)"/><use xlink:href="#N" transform="matrix(26 0 0 -26 356.672 96.28)"/><use xlink:href="#R" transform="matrix(26 0 0 -26 296.38 66.46)"/><use xlink:href="#N" transform="matrix(26 0 0 -26 313.15 66.46)"/><use xlink:href="#O" transform="matrix(26 0 0 -26 329.505 66.46)"/><use xlink:href="#K" transform="matrix(26 0 0 -26 353.298 36.301)"/><use xlink:href="#J" transform="matrix(26 0 0 -26 368.69 36.64)"/><use xlink:href="#M" transform="matrix(26 0 0 -26 384.784 36.301)"/><use xlink:href="#K" transform="matrix(26 0 0 -26 402.906 36.301)"/></svg>