<svg xmlns="http://www.w3.org/2000/svg" xmlns:xlink="http://www.w3.org/1999/xlink" width="761.966" height="412.483" viewBox="0 0 571.474 309.362"><path d="M-44.03 355.018h720v-360h-720z" fill="#fff"/><path d="M35.64 294.478h532.33V5.818H35.64z" fill="#fff"/><clipPath id="a"><path transform="matrix(1 0 0 -1 -44.03 355.018)" d="M79.67 60.54H612V349.2H79.67z"/></clipPath><g clip-path="url(#a)"><path d="M35.64 281.357H263.53V257.5H35.64z" fill="#0072b2"/></g><clipPath id="b"><path transform="matrix(1 0 0 -1 -44.03 355.018)" d="M79.67 60.54H612V349.2H79.67z"/></clipPath><g clip-path="url(#b)"><path d="M35.64 251.536h216.798V227.68H35.64z" fill="#e69f00"/></g><clipPath id="c"><path transform="matrix(1 0 0 -1 -44.03 355.018)" d="M79.67 60.54H612V349.2H79.67z"/></clipPath><g clip-path="url(#c)"><path d="M35.64 221.716h219.341V197.86H35.641z" fill="#009e73"/></g><clipPath id="d"><path transform="matrix(1 0 0 -1 -44.03 355.018)" d="M79.67 60.54H612V349.2H79.67z"/></clipPath><g clip-path="url(#d)"><path d="M35.64 191.896h219.38V168.04H35.64z" fill="#d55e00"/></g><clipPath id="e"><path transform="matrix(1 0 0 -1 -44.03 355.018)" d="M79.67 60.54H612V349.2H79.67z"/></clipPath><g clip-path="url(#e)"><path d="M35.64 162.076h184.34V138.22H35.64z" fill="#cc79a7"/></g><clipPath id="f"><path transform="matrix(1 0 0 -1 -44.03 355.018)" d="M79.67 60.54H612V349.2H79.67z"/></clipPath><g clip-path="url(#f)"><path d="M35.64 132.255h216.8V108.4H35.64z" fill="#f0e442"/></g><clipPath id="g"><path transform="matrix(1 0 0 -1 -44.03 355.018)" d="M79.67 60.54H612V349.2H79.67z"/></clipPath><g clip-path="url(#g)"><path d="M35.64 102.435h216.985V78.58H35.64z" fill="#8b4513"/></g><clipPath id="h"><path transform="matrix(1 0 0 -1 -44.03 355.018)" d="M79.67 60.54H612V349.2H79.67z"/></clipPath><g clip-path="url(#h)"><path d="M35.64 72.615h216.807V48.759H35.64z" fill="#a9a9a9"/></g><clipPath id="i"><path transform="matrix(1 0 0 -1 -44.03 355.018)" d="M79.67 60.54H612V349.2H79.67z"/></clipPath><g clip-path="url(#i)"><clipPath id="j"><path transform="matrix(1 0 0 -1 -44.03 355.018)" d="M79.67 312.223h214.792v23.856H79.67z"/></clipPath><g clip-path="url(#j)"><symbol id="k"><path transform="matrix(1 0 0 -1 -44.03 -4.982)" d="M0 0h72v72H0zM-36 36l72 72m-66-78 72 72m-66-78 72 72m-66-78 72 72m-66-78 72 72M-6 6l72 72M0 0l72 72M6-6l72 72M12-12l72 72M18-18l72 72M24-24l72 72M30-30l72 72M36-36l72 72" fill="#009e73"/><path transform="matrix(1 0 0 -1 -44.03 -4.982)" stroke-miterlimit="10" fill="none" stroke="#000" stroke-opacity="0" d="m-36 36 72 72m-66-78 72 72m-66-78 72 72m-66-78 72 72m-66-78 72 72M-6 6l72 72M0 0l72 72M6-6l72 72M12-12l72 72M18-18l72 72M24-24l72 72M30-30l72 72M36-36l72 72"/></symbol><pattern id="l" patternUnits="userSpaceOnUse" patternContentUnits="userSpaceOnUse" x="0" y="0" width="72" height="72"><use xlink:href="#k" transform="matrix(1 0 0 -1 44.03 -4.982)"/></pattern><path transform="matrix(1 0 0 -1 -44.03 -4.982)" fill="url(#l)" d="M79.67-47.777h214.792v23.856H79.67z"/></g></g><path stroke-width=".8" stroke-linejoin="round" fill="none" stroke="#000" d="M35.64 294.478v12M156.624 294.478v12M277.608 294.478v12M398.593 294.478v12M519.577 294.478v12"/><path stroke-width=".6" stroke-linejoin="round" fill="none" stroke="#000" d="M59.837 294.478v7M84.034 294.478v7M108.23 294.478v7M132.428 294.478v7M180.821 294.478v7M205.018 294.478v7M229.215 294.478v7M253.412 294.478v7M301.805 294.478v7M326.002 294.478v7M350.199 294.478v7M374.396 294.478v7M422.79 294.478v7M446.986 294.478v7M471.183 294.478v7M495.38 294.478v7M543.773 294.478v7M567.97 294.478v7"/><path stroke-width=".8" stroke-linejoin="round" fill="none" stroke="#000" d="M35.64 269.429h-3.5"/><symbol id="m"><path transform="matrix(.001 0 0 .001 -.066 .013)" d="M318 664c-51 0-89-25-115-75s-38-125-38-225 12-175 38-225 64-75 115-75 89 25 115 75c25 50 38 125 38 225s-13 175-38 225c-26 50-64 75-115 75zm0 78c81 0 143-33 187-97 43-65 65-159 65-281 0-123-22-217-65-281-44-64-106-96-188-96S173 19 130 83 66 241 66 364c0 122 21 216 64 281 43 64 106 97 188 97z"/></symbol><use xlink:href="#m" transform="matrix(32 0 0 -32 10.393 282)"/><path stroke-width=".8" stroke-linejoin="round" fill="none" stroke="#000" d="M35.64 239.608h-3.5"/><symbol id="n"><path transform="translate(-.11) scale(.001)" d="M124 83h161v556l-175-35v90l174 35h99V83h161V0H124v83z"/></symbol><use xlink:href="#n" transform="matrix(32 0 0 -32 11.8 251.765)"/><path stroke-width=".8" stroke-linejoin="round" fill="none" stroke="#000" d="M35.64 209.788h-3.5"/><symbol id="o"><path transform="translate(-.073) scale(.001)" d="M192 83h344V0H73v83c37 38 88 90 153 156 64 65 105 107 122 126 32 35 54 65 66 90 12 24 19 49 19 73 0 38-14 70-41 94s-62 37-106 37c-31 0-64-6-98-16-34-11-71-27-110-49v100c40 16 77 28 111 36s66 12 95 12c75 0 135-19 180-57s68-88 68-151c0-30-6-59-17-85-11-27-31-59-61-95-8-10-34-37-78-82S271 164 192 83z"/></symbol><use xlink:href="#o" transform="matrix(32 0 0 -32 10.617 221.944)"/><path stroke-width=".8" stroke-linejoin="round" fill="none" stroke="#000" d="M35.64 179.968h-3.5"/><symbol id="p"><path transform="matrix(.001 0 0 .001 -.076 .013)" d="M406 393c47-10 84-31 110-63s40-72 40-118c0-72-25-128-74-167-50-39-120-58-211-58-31 0-63 3-95 9-32 5-66 14-100 26v95c27-16 57-28 90-36 32-8 66-12 102-12 62 0 109 12 141 36s49 60 49 107c0 42-15 76-45 100s-72 37-126 37h-85v81h89c48 0 85 9 111 29 26 19 39 47 39 84s-14 66-40 86c-27 20-65 30-114 30-27 0-56-3-87-9s-65-15-102-27v88c37 10 72 18 105 23 32 5 63 8 93 8 74 0 133-17 177-51s66-80 66-138c0-40-12-74-35-102s-56-48-98-58z"/></symbol><use xlink:href="#p" transform="matrix(32 0 0 -32 10.713 192.54)"/><path stroke-width=".8" stroke-linejoin="round" fill="none" stroke="#000" d="M35.64 150.148h-3.5"/><symbol id="q"><path transform="translate(-.049) scale(.001)" d="M378 643 129 254h249v389zm-26 86h124V254h104v-82H476V0h-98v172H49v95l303 462z"/></symbol><use xlink:href="#q" transform="matrix(32 0 0 -32 9.849 162.304)"/><path stroke-width=".8" stroke-linejoin="round" fill="none" stroke="#000" d="M35.64 120.327h-3.5"/><symbol id="r"><path transform="matrix(.001 0 0 .001 -.077 .013)" d="M108 729h387v-83H198V467c14 5 29 9 43 11s29 4 43 4c81 0 145-23 193-67 48-45 72-105 72-181 0-79-25-140-74-183S357-13 269-13c-31 0-62 3-94 7-32 5-64 12-98 23v99c29-16 59-28 91-36 31-8 64-11 99-11 56 0 101 14 134 44 32 30 49 70 49 121 0 50-17 90-49 120-33 30-78 45-134 45-26 0-53-3-79-9s-53-15-80-27v366z"/></symbol><use xlink:href="#r" transform="matrix(32 0 0 -32 10.745 132.9)"/><path stroke-width=".8" stroke-linejoin="round" fill="none" stroke="#000" d="M35.64 90.507h-3.5"/><symbol id="s"><path transform="matrix(.001 0 0 .001 -.07 .013)" d="M330 404c-44 0-79-16-105-46s-39-72-39-124c0-53 13-95 39-125s61-45 105-45 79 15 105 45 39 72 39 125c0 52-13 94-39 124s-61 46-105 46zm196 309v-90c-25 12-50 21-75 27-26 6-51 9-75 9-66 0-116-22-150-66s-54-111-58-199c19 28 43 50 72 65s61 23 96 23c73 0 131-23 173-67s64-105 64-181c0-75-23-135-67-180S403-13 330-13c-84 0-149 32-193 96-45 64-67 158-67 281 0 115 27 207 82 275 54 68 128 103 220 103 24 0 49-3 75-7 25-5 51-12 79-22z"/></symbol><use xlink:href="#s" transform="matrix(32 0 0 -32 10.52 103.08)"/><path stroke-width=".8" stroke-linejoin="round" fill="none" stroke="#000" d="M35.64 60.687h-3.5"/><symbol id="t"><path transform="translate(-.082) scale(.001)" d="M82 729h469v-42L286 0H183l249 646H82v83z"/></symbol><use xlink:href="#t" transform="matrix(32 0 0 -32 10.905 72.843)"/><path stroke-width=".8" stroke-linejoin="round" fill="none" stroke="#000" d="M35.64 30.867h-3.5"/><symbol id="u"><path transform="translate(-.098) scale(.001)" d="M98 729h147l186-496 187 496h147V0h-96v640L481 140h-99L194 640V0H98v729z"/></symbol><use xlink:href="#u" transform="matrix(32 0 0 -32 4.167 43.023)"/><path stroke-width=".8" stroke-linecap="square" stroke-miterlimit="10" fill="none" stroke="#000" d="M35.64 294.478V5.818M567.97 294.478V5.818M35.64 294.478h532.33M35.64 5.818h532.33"/><use xlink:href="#t" transform="matrix(26 0 0 -26 265.66 276.6)"/><use xlink:href="#r" transform="matrix(26 0 0 -26 282.067 276.938)"/><use xlink:href="#p" transform="matrix(26 0 0 -26 298.577 276.938)"/><use xlink:href="#t" transform="matrix(26 0 0 -26 254.57 246.78)"/><use xlink:href="#n" transform="matrix(26 0 0 -26 271.834 246.78)"/><use xlink:href="#t" transform="matrix(26 0 0 -26 287.642 246.78)"/><use xlink:href="#t" transform="matrix(26 0 0 -26 257.113 216.96)"/><use xlink:href="#o" transform="matrix(26 0 0 -26 273.415 216.96)"/><use xlink:href="#r" transform="matrix(26 0 0 -26 290.055 217.298)"/><use xlink:href="#t" transform="matrix(26 0 0 -26 257.153 187.14)"/><use xlink:href="#o" transform="matrix(26 0 0 -26 273.455 187.14)"/><use xlink:href="#r" transform="matrix(26 0 0 -26 290.095 187.478)"/><symbol id="v"><path transform="matrix(.001 0 0 .001 -.063 .013)" d="M110 15v90c24-12 49-21 75-27 25-6 50-9 75-9 64 0 114 21 148 65s54 110 60 200c-20-28-44-50-72-65-29-15-61-22-96-22-74 0-132 22-174 66S63 417 63 494c0 74 22 134 66 180 44 45 103 68 177 68 84 0 149-33 193-97 44-65 67-159 67-281 0-116-28-207-82-275C429 21 356-13 264-13c-25 0-50 3-75 7-26 4-52 11-79 21zm196 309c44 0 79 15 105 45s39 72 39 125c0 52-13 94-39 124s-61 46-105 46-79-16-105-46-39-72-39-124c0-53 13-95 39-125s61-45 105-45z"/></symbol><use xlink:href="#s" transform="matrix(26 0 0 -26 221.8 157.657)"/><use xlink:href="#m" transform="matrix(26 0 0 -26 238.233 157.657)"/><use xlink:href="#v" transform="matrix(26 0 0 -26 254.69 157.657)"/><use xlink:href="#t" transform="matrix(26 0 0 -26 254.573 127.5)"/><use xlink:href="#n" transform="matrix(26 0 0 -26 271.837 127.5)"/><use xlink:href="#t" transform="matrix(26 0 0 -26 287.645 127.5)"/><use xlink:href="#t" transform="matrix(26 0 0 -26 254.757 97.679)"/><use xlink:href="#n" transform="matrix(26 0 0 -26 272.021 97.679)"/><use xlink:href="#t" transform="matrix(26 0 0 -26 287.83 97.679)"/><use xlink:href="#t" transform="matrix(26 0 0 -26 254.579 67.859)"/><use xlink:href="#n" transform="matrix(26 0 0 -26 271.843 67.859)"/><use xlink:href="#t" transform="matrix(26 0 0 -26 287.65 67.859)"/><use xlink:href="#t" transform="matrix(26 0 0 -26 252.564 38.038)"/><use xlink:href="#n" transform="matrix(26 0 0 -26 269.828 38.038)"/><use xlink:href="#m" transform="matrix(26 0 0 -26 285.22 38.376)"/></svg>