<svg xmlns="http://www.w3.org/2000/svg" xmlns:xlink="http://www.w3.org/1999/xlink" width="43.236" height="181.001" viewBox="0 0 32.427 135.751"><path d="M-7.295 272.395h720v-360h-720z" fill="#fff"/><symbol id="a"><path transform="translate(-.098) scale(.001)" d="M98 729h147l186-496 187 496h147V0h-96v640L481 140h-99L194 640V0H98v729z"/></symbol><symbol id="b"><path transform="matrix(.001 0 0 .001 -.055 .013)" d="M306 484c-48 0-86-19-114-57s-42-89-42-154c0-66 13-117 41-155s66-56 115-56c48 0 86 18 114 56s42 89 42 155c0 64-14 116-42 154s-66 57-114 57zm0 76c78 0 139-26 184-76 44-51 67-121 67-211s-23-160-67-210c-45-51-106-76-184-76-79 0-141 25-185 76-44 50-66 120-66 210s22 160 66 211c44 50 106 76 185 76z"/></symbol><symbol id="c"><path transform="matrix(.001 0 0 .001 -.055 .013)" d="M454 464v296h90V0h-90v82c-19-33-43-57-72-72s-63-23-103-23c-66 0-120 26-162 78S55 187 55 273s20 155 62 208c42 52 96 79 162 79 40 0 74-8 103-24s53-40 72-72zM148 273c0-66 13-118 40-156s64-56 112-56 85 18 113 56c27 38 41 90 41 156s-14 117-41 155c-28 38-65 57-113 57s-85-19-112-57-40-89-40-155z"/></symbol><symbol id="d"><path transform="matrix(.001 0 0 .001 -.055 .013)" d="M562 296v-44H149c4-62 22-110 56-142 33-32 79-48 139-48 34 0 68 4 100 12s65 21 97 39V28c-32-14-65-25-99-31s-69-10-103-10c-88 0-157 25-208 75S55 181 55 268c0 89 24 160 72 213 48 52 114 79 196 79 74 0 132-24 175-71 42-48 64-112 64-193zm-90 26c-1 49-15 88-41 118-27 29-63 44-107 44-50 0-90-15-120-43s-48-68-52-119h320z"/></symbol><symbol id="e"><path transform="translate(-.094) scale(.001)" d="M94 760h90V0H94v760z"/></symbol><symbol id="g"><path transform="translate(-.098) scale(.001)" d="M98 729h99V0H98v729z"/></symbol><symbol id="h"><path transform="translate(-.098) scale(.001)" d="M197 648V81h119c100 0 174 22 221 68 46 46 70 118 70 216s-24 169-70 215c-47 45-121 68-221 68H197zm-99 81h203c141 0 245-30 311-88 66-59 99-151 99-276 0-126-34-218-100-277S441 0 301 0H98v729z"/></symbol><use xlink:href="#a" transform="matrix(0 -30 -30 0 27.531 130.374)"/><use xlink:href="#b" transform="matrix(0 -30 -30 0 27.921 105.774)"/><use xlink:href="#c" transform="matrix(0 -30 -30 0 27.921 87.414)"/><use xlink:href="#d" transform="matrix(0 -30 -30 0 27.921 68.364)"/><use xlink:href="#e" transform="matrix(0 -30 -30 0 27.531 48.744)"/><use xlink:href="#f" transform="matrix(0 -30 -30 0 27.531 43.224)"/><use xlink:href="#g" transform="matrix(0 -30 -30 0 27.531 30.744)"/><use xlink:href="#h" transform="matrix(0 -30 -30 0 27.531 21.894)"/></svg>