<svg xmlns="http://www.w3.org/2000/svg" xmlns:xlink="http://www.w3.org/1999/xlink" width="960" height="480" viewBox="0 0 720 360"><path d="M0 360h720V0H0z" fill="#fff"/><path d="M79.67 299.46H612V10.8H79.67z" fill="#fff"/><clipPath id="a"><path transform="matrix(1 0 0 -1 0 360)" d="M79.67 60.54H612V349.2H79.67z"/></clipPath><g clip-path="url(#a)"><path d="M79.67 286.34h108.474v-23.857H79.67z" fill="#0072b2"/></g><clipPath id="b"><path transform="matrix(1 0 0 -1 0 360)" d="M79.67 60.54H612V349.2H79.67z"/></clipPath><g clip-path="url(#b)"><path d="M79.67 256.519h63.378v-23.856H79.67z" fill="#e69f00"/></g><clipPath id="c"><path transform="matrix(1 0 0 -1 0 360)" d="M79.67 60.54H612V349.2H79.67z"/></clipPath><g clip-path="url(#c)"><path d="M79.67 226.699h80.457v-23.857H79.67z" fill="#009e73"/></g><clipPath id="d"><path transform="matrix(1 0 0 -1 0 360)" d="M79.67 60.54H612V349.2H79.67z"/></clipPath><g clip-path="url(#d)"><path d="M79.67 196.878h80.41v-23.856H79.67z" fill="#d55e00"/></g><clipPath id="e"><path transform="matrix(1 0 0 -1 0 360)" d="M79.67 60.54H612V349.2H79.67z"/></clipPath><g clip-path="url(#e)"><path d="M79.67 167.058h66.683v-23.856H79.67z" fill="#cc79a7"/></g><clipPath id="f"><path transform="matrix(1 0 0 -1 0 360)" d="M79.67 60.54H612V349.2H79.67z"/></clipPath><g clip-path="url(#f)"><path d="M79.67 137.238h63.462v-23.856H79.67z" fill="#f0e442"/></g><clipPath id="g"><path transform="matrix(1 0 0 -1 0 360)" d="M79.67 60.54H612V349.2H79.67z"/></clipPath><g clip-path="url(#g)"><path d="M79.67 107.418h65.519V83.56H79.67z" fill="#8b4513"/></g><clipPath id="h"><path transform="matrix(1 0 0 -1 0 360)" d="M79.67 60.54H612V349.2H79.67z"/></clipPath><g clip-path="url(#h)"><path d="M79.67 77.597h63.498V53.741H79.67z" fill="#a9a9a9"/></g><clipPath id="i"><path transform="matrix(1 0 0 -1 0 360)" d="M79.67 60.54H612V349.2H79.67z"/></clipPath><g clip-path="url(#i)"><clipPath id="j"><path transform="matrix(1 0 0 -1 0 360)" d="M79.67 312.223h73.985v23.856H79.67z"/></clipPath><g clip-path="url(#j)"><symbol id="k"><path transform="scale(1 -1)" d="M0 0h72v72H0zM-36 36l72 72m-66-78 72 72m-66-78 72 72m-66-78 72 72m-66-78 72 72M-6 6l72 72M0 0l72 72M6-6l72 72M12-12l72 72M18-18l72 72M24-24l72 72M30-30l72 72M36-36l72 72" fill="#009e73"/><path transform="scale(1 -1)" stroke-miterlimit="10" fill="none" stroke="#000" stroke-opacity="0" d="m-36 36 72 72m-66-78 72 72m-66-78 72 72m-66-78 72 72m-66-78 72 72M-6 6l72 72M0 0l72 72M6-6l72 72M12-12l72 72M18-18l72 72M24-24l72 72M30-30l72 72M36-36l72 72"/></symbol><pattern id="l" patternUnits="userSpaceOnUse" patternContentUnits="userSpaceOnUse" x="0" y="0" width="72" height="72"><use xlink:href="#k" transform="scale(1 -1)"/></pattern><path transform="scale(1 -1)" fill="url(#l)" d="M79.67-47.777h73.985v23.856H79.67z"/></g></g><path stroke-width=".8" stroke-linejoin="round" fill="none" stroke="#000" d="M79.67 299.46v12M200.654 299.46v12M321.638 299.46v12M442.622 299.46v12M563.606 299.46v12"/><path stroke-width=".6" stroke-linejoin="round" fill="none" stroke="#000" d="M103.867 299.46v7M128.064 299.46v7M152.26 299.46v7M176.457 299.46v7M224.85 299.46v7M249.048 299.46v7M273.245 299.46v7M297.441 299.46v7M345.835 299.46v7M370.032 299.46v7M394.229 299.46v7M418.425 299.46v7M466.82 299.46v7M491.016 299.46v7M515.213 299.46v7M539.41 299.46v7M587.803 299.46v7M612 299.46v7"/><symbol id="m"><path transform="matrix(.001 0 0 .001 -.066 .013)" d="M535 705v-96c-38 18-73 31-106 40-34 8-66 13-96 13-54 0-96-11-125-31-29-21-43-51-43-89 0-32 9-57 29-73 19-17 56-30 110-40l60-12c73-14 127-39 162-74 35-36 53-83 53-142 0-71-24-124-71-160-48-36-117-54-208-54-35 0-72 4-111 11S110 16 69 32v102c40-23 79-40 117-51 38-12 76-17 114-17 56 0 99 11 130 33 30 22 46 53 46 95 0 36-11 64-33 84s-58 35-108 45l-60 12c-74 14-127 37-160 69-33 31-49 74-49 130 0 64 22 115 68 152 45 37 108 56 188 56 34 0 68-3 104-9 35-6 71-16 109-28z"/></symbol><symbol id="n"><path transform="matrix(.001 0 0 .001 -.087 .013)" d="M87 729h99V286c0-78 14-135 42-169s74-51 138-51c63 0 109 17 137 51s43 91 43 169v443h99V274c0-96-24-167-71-215S458-13 366-13 204 11 157 59 87 178 87 274v455z"/></symbol><symbol id="o"><path transform="translate(-.098) scale(.001)" d="M444 342c21-8 42-23 62-46 20-24 40-56 60-97L666 0H560l-93 187c-24 48-48 81-70 97-23 16-54 24-93 24H197V0H98v729h223c83 0 145-18 186-52 41-35 62-88 62-158 0-46-11-85-32-115-22-30-53-51-93-62zM197 648V389h124c47 0 83 11 107 33s37 54 37 97c0 42-13 74-37 96s-60 33-107 33H197z"/></symbol><symbol id="p"><path transform="translate(-.098) scale(.001)" d="M98 729h419v-83H197V431h289v-83H197V0H98v729z"/></symbol><symbol id="q"><path transform="matrix(.001 0 0 .001 -.049 -.234)" d="M49 314h263v-80H49v80z"/></symbol><symbol id="r"><path transform="translate(-.073) scale(.001)" d="M192 83h344V0H73v83c37 38 88 90 153 156 64 65 105 107 122 126 32 35 54 65 66 90 12 24 19 49 19 73 0 38-14 70-41 94s-62 37-106 37c-31 0-64-6-98-16-34-11-71-27-110-49v100c40 16 77 28 111 36s66 12 95 12c75 0 135-19 180-57s68-88 68-151c0-30-6-59-17-85-11-27-31-59-61-95-8-10-34-37-78-82S271 164 192 83z"/></symbol><symbol id="s"><path transform="matrix(.001 0 0 .001 -.077 .115)" d="M117 124h103V40l-80-155H77l40 155v84z"/></symbol><symbol id="u"><path transform="translate(.002) scale(.001)" d="M-2 729h616v-83H355V0h-99v646H-2v83z"/></symbol><symbol id="v"><path transform="matrix(.001 0 0 .001 -.055 .013)" d="M306 484c-48 0-86-19-114-57s-42-89-42-154c0-66 13-117 41-155s66-56 115-56c48 0 86 18 114 56s42 89 42 155c0 64-14 116-42 154s-66 57-114 57zm0 76c78 0 139-26 184-76 44-51 67-121 67-211s-23-160-67-210c-45-51-106-76-184-76-79 0-141 25-185 76-44 50-66 120-66 210s22 160 66 211c44 50 106 76 185 76z"/></symbol><symbol id="w"><path transform="translate(-.027) scale(.001)" d="M183 702V547h185v-70H183V180c0-45 6-74 18-86 12-13 37-19 75-19h92V0h-92c-70 0-118 13-144 39s-39 73-39 141v297H27v70h66v155h90z"/></symbol><symbol id="x"><path transform="matrix(.001 0 0 .001 -.06 .013)" d="M343 275c-73 0-123-9-151-25-28-17-42-45-42-85 0-32 10-58 31-76 21-19 50-28 86-28 50 0 90 17 120 53 30 35 45 82 45 141v20h-89zm179 37V0h-90v83c-21-34-47-58-77-73s-68-23-112-23c-56 0-101 15-134 46s-49 73-49 126c0 61 20 107 62 139 41 31 102 47 184 47h126v9c0 41-14 73-41 96-27 22-65 34-114 34-32 0-62-4-92-12s-58-19-85-33v83c32 12 64 22 95 28s61 10 91 10c79 0 138-21 177-62s59-103 59-186z"/></symbol><symbol id="y"><path transform="translate(-.094) scale(.001)" d="M94 760h90V0H94v760z"/></symbol><symbol id="z"><path transform="matrix(.001 0 0 .001 -.055 .013)" d="M562 296v-44H149c4-62 22-110 56-142 33-32 79-48 139-48 34 0 68 4 100 12s65 21 97 39V28c-32-14-65-25-99-31s-69-10-103-10c-88 0-157 25-208 75S55 181 55 268c0 89 24 160 72 213 48 52 114 79 196 79 74 0 132-24 175-71 42-48 64-112 64-193zm-90 26c-1 49-15 88-41 118-27 29-63 44-107 44-50 0-90-15-120-43s-48-68-52-119h320z"/></symbol><symbol id="A"><path transform="translate(-.091) scale(.001)" d="M520 442c22 40 49 69 80 89 31 19 68 29 111 29 56 0 100-20 131-60s47-97 47-170V0h-90v327c0 52-10 91-28 117-19 25-47 38-85 38-47 0-84-16-111-47s-40-73-40-126V0h-90v327c0 52-10 91-28 117-19 25-48 38-86 38-46 0-83-16-110-47s-40-73-40-126V0H91v547h90v-85c20 33 45 58 74 74 28 16 62 24 102 24s73-10 101-30 48-50 62-88z"/></symbol><symbol id="B"><path transform="translate(-.094) scale(.001)" d="M94 547h90V0H94v547zm0 213h90V646H94v114z"/></symbol><symbol id="C"><path transform="matrix(.001 0 0 .001 -.054 .013)" d="M443 531v-85c-26 12-52 22-79 29-28 6-56 10-85 10-45 0-79-7-101-21s-33-34-33-61c0-21 8-37 24-49s48-24 96-34l31-7c64-14 109-34 136-58 26-25 40-60 40-104 0-51-20-91-60-120-40-30-96-44-166-44-30 0-60 3-92 8S89 8 54 20v93c33-18 66-31 98-39 32-9 64-13 96-13 42 0 75 7 98 21 22 14 34 35 34 62 0 24-9 43-25 56s-52 26-108 38l-31 7c-56 12-97 30-121 54-25 24-37 57-37 100 0 51 18 91 54 119s88 42 156 42c33 0 64-3 94-8 29-5 56-12 81-21z"/></symbol><symbol id="D"><path transform="translate(-.091) scale(.001)" d="M549 330V0h-90v327c0 52-11 90-31 116s-50 39-90 39c-49 0-87-16-115-47s-42-73-42-126V0H91v547h90v-85c21 32 46 57 76 73 29 16 63 25 101 25 62 0 110-20 142-59s49-96 49-171z"/></symbol><symbol id="E"><path transform="matrix(.001 0 0 .001 -.086 .131)" d="M86 760h207v-70H176V-61h117v-70H86v891z"/></symbol><symbol id="F"><path transform="translate(-.091) scale(.001)" d="M91 760h90V311l268 236h115L274 291 576 0H459L181 267V0H91v760z"/></symbol><symbol id="G"><path transform="matrix(.001 0 0 .001 -.055 .207)" d="M454 280c0 64-14 115-40 151-27 36-65 54-113 54s-86-18-113-54-40-87-40-151c0-65 13-115 40-151s65-54 113-54 86 18 113 54c26 36 40 86 40 151zm90-212c0-92-21-161-62-207-42-45-105-68-190-68-32 0-61 3-89 7-28 5-56 12-82 22v87c26-14 52-24 78-31s52-11 79-11c58 0 102 16 132 46 29 31 44 77 44 139v44c-19-32-43-56-72-72S319 0 279 0c-68 0-122 25-163 76S55 195 55 280c0 84 20 152 61 203s95 77 163 77c40 0 74-8 103-24s53-40 72-72v83h90V68z"/></symbol><symbol id="H"><path transform="matrix(.001 0 0 .001 -.056 .013)" d="M644 673V569c-34 30-69 53-107 69-38 15-77 23-119 23-84 0-148-26-192-77s-66-124-66-220 22-170 66-221 108-76 192-76c42 0 81 7 119 23 38 15 73 38 107 69V56c-35-24-72-41-110-52s-79-17-122-17C302-13 215 20 151 87S56 246 56 364c0 117 31 209 95 277 64 67 151 101 261 101 44 0 85-6 123-17 38-12 75-29 109-52z"/></symbol><symbol id="I"><path transform="matrix(.001 0 0 .001 -.056 .013)" d="M394 662c-72 0-129-27-171-80-42-54-63-126-63-218s21-165 63-218c42-54 99-80 171-80 71 0 128 26 170 80 42 53 63 126 63 218s-21 164-63 218c-42 53-99 80-170 80zm0 80c102 0 183-35 245-103 61-68 92-160 92-275 0-116-31-207-92-275C577 21 496-13 394-13 291-13 209 21 148 89c-62 68-92 159-92 275 0 115 30 207 92 275 61 68 143 103 246 103z"/></symbol><symbol id="J"><path transform="matrix(.001 0 0 .001 -.097 .131)" d="M304 760v-891H97v70h117v751H97v70h207z"/></symbol><use xlink:href="#m" transform="matrix(30 0 0 -30 93.62 342.147)"/><use xlink:href="#n" transform="matrix(30 0 0 -30 113.3 342.147)"/><use xlink:href="#o" transform="matrix(30 0 0 -30 135.59 341.757)"/><use xlink:href="#p" transform="matrix(30 0 0 -30 156.44 341.757)"/><use xlink:href="#q" transform="matrix(30 0 0 -30 172.22 334.737)"/><use xlink:href="#r" transform="matrix(30 0 0 -30 183.77 341.757)"/><use xlink:href="#r" transform="matrix(30 0 0 -30 202.85 341.757)"/><use xlink:href="#s" transform="matrix(30 0 0 -30 222.05 345.207)"/><use xlink:href="#t" transform="matrix(30 0 0 -30 229.28 341.757)"/><use xlink:href="#u" transform="matrix(30 0 0 -30 238.76 341.757)"/><use xlink:href="#v" transform="matrix(30 0 0 -30 253.706 342.147)"/><use xlink:href="#w" transform="matrix(30 0 0 -30 271.226 341.757)"/><use xlink:href="#x" transform="matrix(30 0 0 -30 283.976 342.147)"/><use xlink:href="#y" transform="matrix(30 0 0 -30 303.386 341.757)"/><use xlink:href="#t" transform="matrix(30 0 0 -30 308.906 341.757)"/><use xlink:href="#z" transform="matrix(30 0 0 -30 320.096 342.147)"/><use xlink:href="#A" transform="matrix(30 0 0 -30 339.626 341.757)"/><use xlink:href="#B" transform="matrix(30 0 0 -30 368.936 341.757)"/><use xlink:href="#C" transform="matrix(30 0 0 -30 376.076 342.147)"/><use xlink:href="#C" transform="matrix(30 0 0 -30 391.706 342.147)"/><use xlink:href="#B" transform="matrix(30 0 0 -30 408.536 341.757)"/><use xlink:href="#v" transform="matrix(30 0 0 -30 415.706 342.147)"/><use xlink:href="#D" transform="matrix(30 0 0 -30 435.146 341.757)"/><use xlink:href="#C" transform="matrix(30 0 0 -30 453.056 342.147)"/><use xlink:href="#t" transform="matrix(30 0 0 -30 467.066 341.757)"/><use xlink:href="#E" transform="matrix(30 0 0 -30 479.186 345.687)"/><use xlink:href="#F" transform="matrix(30 0 0 -30 491.036 341.757)"/><use xlink:href="#G" transform="matrix(30 0 0 -30 507.326 347.967)"/><use xlink:href="#H" transform="matrix(30 0 0 -30 526.406 342.147)"/><use xlink:href="#I" transform="matrix(30 0 0 -30 547.346 342.147)"/><use xlink:href="#r" transform="matrix(30 0 0 -30 571.466 341.757)"/><use xlink:href="#J" transform="matrix(30 0 0 -30 591.266 345.687)"/><path stroke-width=".8" stroke-linejoin="round" fill="none" stroke="#000" d="M79.67 274.411h-3.5"/><symbol id="K"><path transform="matrix(.001 0 0 .001 -.066 .013)" d="M318 664c-51 0-89-25-115-75s-38-125-38-225 12-175 38-225 64-75 115-75 89 25 115 75c25 50 38 125 38 225s-13 175-38 225c-26 50-64 75-115 75zm0 78c81 0 143-33 187-97 43-65 65-159 65-281 0-123-22-217-65-281-44-64-106-96-188-96S173 19 130 83 66 241 66 364c0 122 21 216 64 281 43 64 106 97 188 97z"/></symbol><use xlink:href="#K" transform="matrix(32 0 0 -32 54.423 286.983)"/><path stroke-width=".8" stroke-linejoin="round" fill="none" stroke="#000" d="M79.67 244.59h-3.5"/><symbol id="L"><path transform="translate(-.11) scale(.001)" d="M124 83h161v556l-175-35v90l174 35h99V83h161V0H124v83z"/></symbol><use xlink:href="#L" transform="matrix(32 0 0 -32 55.83 256.747)"/><path stroke-width=".8" stroke-linejoin="round" fill="none" stroke="#000" d="M79.67 214.77h-3.5"/><use xlink:href="#r" transform="matrix(32 0 0 -32 54.647 226.927)"/><path stroke-width=".8" stroke-linejoin="round" fill="none" stroke="#000" d="M79.67 184.95h-3.5"/><symbol id="M"><path transform="matrix(.001 0 0 .001 -.076 .013)" d="M406 393c47-10 84-31 110-63s40-72 40-118c0-72-25-128-74-167-50-39-120-58-211-58-31 0-63 3-95 9-32 5-66 14-100 26v95c27-16 57-28 90-36 32-8 66-12 102-12 62 0 109 12 141 36s49 60 49 107c0 42-15 76-45 100s-72 37-126 37h-85v81h89c48 0 85 9 111 29 26 19 39 47 39 84s-14 66-40 86c-27 20-65 30-114 30-27 0-56-3-87-9s-65-15-102-27v88c37 10 72 18 105 23 32 5 63 8 93 8 74 0 133-17 177-51s66-80 66-138c0-40-12-74-35-102s-56-48-98-58z"/></symbol><use xlink:href="#M" transform="matrix(32 0 0 -32 54.743 197.522)"/><path stroke-width=".8" stroke-linejoin="round" fill="none" stroke="#000" d="M79.67 155.13h-3.5"/><symbol id="N"><path transform="translate(-.049) scale(.001)" d="M378 643 129 254h249v389zm-26 86h124V254h104v-82H476V0h-98v172H49v95l303 462z"/></symbol><use xlink:href="#N" transform="matrix(32 0 0 -32 53.879 167.286)"/><path stroke-width=".8" stroke-linejoin="round" fill="none" stroke="#000" d="M79.67 125.31h-3.5"/><symbol id="O"><path transform="matrix(.001 0 0 .001 -.077 .013)" d="M108 729h387v-83H198V467c14 5 29 9 43 11s29 4 43 4c81 0 145-23 193-67 48-45 72-105 72-181 0-79-25-140-74-183S357-13 269-13c-31 0-62 3-94 7-32 5-64 12-98 23v99c29-16 59-28 91-36 31-8 64-11 99-11 56 0 101 14 134 44 32 30 49 70 49 121 0 50-17 90-49 120-33 30-78 45-134 45-26 0-53-3-79-9s-53-15-80-27v366z"/></symbol><use xlink:href="#O" transform="matrix(32 0 0 -32 54.775 137.882)"/><path stroke-width=".8" stroke-linejoin="round" fill="none" stroke="#000" d="M79.67 95.49h-3.5"/><symbol id="P"><path transform="matrix(.001 0 0 .001 -.07 .013)" d="M330 404c-44 0-79-16-105-46s-39-72-39-124c0-53 13-95 39-125s61-45 105-45 79 15 105 45 39 72 39 125c0 52-13 94-39 124s-61 46-105 46zm196 309v-90c-25 12-50 21-75 27-26 6-51 9-75 9-66 0-116-22-150-66s-54-111-58-199c19 28 43 50 72 65s61 23 96 23c73 0 131-23 173-67s64-105 64-181c0-75-23-135-67-180S403-13 330-13c-84 0-149 32-193 96-45 64-67 158-67 281 0 115 27 207 82 275 54 68 128 103 220 103 24 0 49-3 75-7 25-5 51-12 79-22z"/></symbol><use xlink:href="#P" transform="matrix(32 0 0 -32 54.55 108.062)"/><path stroke-width=".8" stroke-linejoin="round" fill="none" stroke="#000" d="M79.67 65.67h-3.5"/><symbol id="Q"><path transform="translate(-.082) scale(.001)" d="M82 729h469v-42L286 0H183l249 646H82v83z"/></symbol><use xlink:href="#Q" transform="matrix(32 0 0 -32 54.935 77.826)"/><path stroke-width=".8" stroke-linejoin="round" fill="none" stroke="#000" d="M79.67 35.849h-3.5"/><symbol id="R"><path transform="translate(-.098) scale(.001)" d="M98 729h147l186-496 187 496h147V0h-96v640L481 140h-99L194 640V0H98v729z"/></symbol><use xlink:href="#R" transform="matrix(32 0 0 -32 48.197 48.005)"/><symbol id="S"><path transform="matrix(.001 0 0 .001 -.055 .013)" d="M454 464v296h90V0h-90v82c-19-33-43-57-72-72s-63-23-103-23c-66 0-120 26-162 78S55 187 55 273s20 155 62 208c42 52 96 79 162 79 40 0 74-8 103-24s53-40 72-72zM148 273c0-66 13-118 40-156s64-56 112-56 85 18 113 56c27 38 41 90 41 156s-14 117-41 155c-28 38-65 57-113 57s-85-19-112-57-40-89-40-155z"/></symbol><symbol id="T"><path transform="translate(-.098) scale(.001)" d="M98 729h99V0H98v729z"/></symbol><symbol id="U"><path transform="translate(-.098) scale(.001)" d="M197 648V81h119c100 0 174 22 221 68 46 46 70 118 70 216s-24 169-70 215c-47 45-121 68-221 68H197zm-99 81h203c141 0 245-30 311-88 66-59 99-151 99-276 0-126-34-218-100-277S441 0 301 0H98v729z"/></symbol><use xlink:href="#R" transform="matrix(0 -30 -30 0 34.826 217.98)"/><use xlink:href="#v" transform="matrix(0 -30 -30 0 35.216 193.38)"/><use xlink:href="#S" transform="matrix(0 -30 -30 0 35.216 175.02)"/><use xlink:href="#z" transform="matrix(0 -30 -30 0 35.216 155.97)"/><use xlink:href="#y" transform="matrix(0 -30 -30 0 34.826 136.35)"/><use xlink:href="#t" transform="scale(30) rotate(-90 2.76 1.6)"/><use xlink:href="#T" transform="matrix(0 -30 -30 0 34.826 118.35)"/><use xlink:href="#U" transform="matrix(0 -30 -30 0 34.826 109.5)"/><path stroke-width=".8" stroke-linecap="square" stroke-miterlimit="10" fill="none" stroke="#000" d="M79.67 299.46V10.8M612 299.46V10.8M79.67 299.46H612M79.67 10.8H612"/><symbol id="V"><path transform="matrix(.001 0 0 .001 -.068 .013)" d="M318 346c-47 0-84-13-111-38s-40-59-40-103 13-79 40-104 64-37 111-37c46 0 83 12 110 38 27 25 41 59 41 103s-14 78-40 103c-27 25-64 38-111 38zm-99 42c-42 10-75 30-99 59s-35 64-35 106c0 58 20 104 62 138 41 34 98 51 171 51 72 0 129-17 171-51 41-34 62-80 62-138 0-42-12-77-36-106s-56-49-98-59c47-11 84-33 111-65 26-32 40-72 40-118 0-71-22-125-65-162-44-38-106-56-186-56S175 5 132 43c-43 37-64 91-64 162 0 46 13 86 40 118 26 32 63 54 111 65zm-36 156c0-38 11-68 35-89s57-31 100-31c42 0 75 10 99 31s36 51 36 89-12 67-36 88-57 32-99 32c-43 0-76-11-100-32s-35-50-35-88z"/></symbol><use xlink:href="#M" transform="matrix(26 0 0 -26 190.12 281.92)"/><use xlink:href="#O" transform="matrix(26 0 0 -26 206.682 281.92)"/><use xlink:href="#V" transform="matrix(26 0 0 -26 222.984 281.92)"/><symbol id="W"><path transform="matrix(.001 0 0 .001 -.063 .013)" d="M110 15v90c24-12 49-21 75-27 25-6 50-9 75-9 64 0 114 21 148 65s54 110 60 200c-20-28-44-50-72-65-29-15-61-22-96-22-74 0-132 22-174 66S63 417 63 494c0 74 22 134 66 180 44 45 103 68 177 68 84 0 149-33 193-97 44-65 67-159 67-281 0-116-28-207-82-275C429 21 356-13 264-13c-25 0-50 3-75 7-26 4-52 11-79 21zm196 309c44 0 79 15 105 45s39 72 39 125c0 52-13 94-39 124s-61 46-105 46-79-16-105-46-39-72-39-124c0-53 13-95 39-125s61-45 105-45z"/></symbol><use xlink:href="#r" transform="matrix(26 0 0 -26 144.946 251.763)"/><use xlink:href="#K" transform="matrix(26 0 0 -26 161.3 252.1)"/><use xlink:href="#W" transform="matrix(26 0 0 -26 177.758 252.1)"/><use xlink:href="#r" transform="matrix(26 0 0 -26 162.025 221.942)"/><use xlink:href="#P" transform="matrix(26 0 0 -26 178.483 222.28)"/><use xlink:href="#P" transform="matrix(26 0 0 -26 195.02 222.28)"/><use xlink:href="#r" transform="matrix(26 0 0 -26 161.977 192.122)"/><use xlink:href="#P" transform="matrix(26 0 0 -26 178.435 192.46)"/><use xlink:href="#O" transform="matrix(26 0 0 -26 195.153 192.46)"/><use xlink:href="#r" transform="matrix(26 0 0 -26 148.251 162.302)"/><use xlink:href="#r" transform="matrix(26 0 0 -26 164.787 162.302)"/><use xlink:href="#K" transform="matrix(26 0 0 -26 181.141 162.64)"/><use xlink:href="#r" transform="matrix(26 0 0 -26 145.03 132.482)"/><use xlink:href="#K" transform="matrix(26 0 0 -26 161.384 132.82)"/><use xlink:href="#W" transform="matrix(26 0 0 -26 177.842 132.82)"/><use xlink:href="#r" transform="matrix(26 0 0 -26 147.087 102.661)"/><use xlink:href="#L" transform="matrix(26 0 0 -26 164.585 102.661)"/><use xlink:href="#P" transform="matrix(26 0 0 -26 180.08 103)"/><use xlink:href="#r" transform="matrix(26 0 0 -26 145.066 72.841)"/><use xlink:href="#K" transform="matrix(26 0 0 -26 161.42 73.18)"/><use xlink:href="#W" transform="matrix(26 0 0 -26 177.879 73.18)"/><use xlink:href="#r" transform="matrix(26 0 0 -26 155.553 43.02)"/><use xlink:href="#N" transform="matrix(26 0 0 -26 171.465 43.02)"/><use xlink:href="#O" transform="matrix(26 0 0 -26 188.729 43.359)"/></svg>